<svg width="68" height="64" viewBox="0 0 68 64" fill="none" xmlns="http://www.w3.org/2000/svg">
<path d="M31.8103 16.0421C32.4013 21.5302 36.2007 25.6674 40.5912 26.0896C40.4224 27.0183 39.4936 34.5328 47.768 39.9365C55.4514 44.918 57.14 49.1397 55.1137 58.2584C55.0292 58.6805 55.2825 59.1871 55.7891 59.2716C55.8736 59.2716 55.8735 59.2716 55.958 59.2716C56.3801 59.2716 56.7179 59.0183 56.8023 58.5961C58.9131 48.8864 56.8867 43.8204 48.6968 38.5012C41.0978 33.6041 42.1955 26.5962 42.2799 26.3429C42.2799 26.2584 42.2799 26.174 42.2799 26.0896C47.177 25.4985 50.7232 20.0948 50.0477 14.1001C49.71 11.145 48.5279 8.52757 46.586 6.67005C44.644 4.7281 42.1955 3.79934 39.7469 4.05264C37.2984 4.30594 35.1031 5.74129 33.5833 8.02097C32.148 10.3007 31.4725 13.1714 31.8103 16.0421ZM35.0187 8.94973C36.2007 7.09221 37.9738 5.91016 39.9158 5.74129C40.1691 5.74129 40.3379 5.74129 40.5912 5.74129C42.2799 5.74129 43.9685 6.50118 45.4039 7.93654C47.0081 9.54076 48.1057 11.8204 48.359 14.3534C48.9501 19.5038 46.0794 24.0632 41.9422 24.4853C37.8894 24.9075 34.0899 21.108 33.4989 15.8732C33.2456 13.3402 33.7522 10.8917 35.0187 8.94973Z" fill="#4F46E8"/>
<path d="M41.0982 8.35846C43.209 9.28722 44.8132 11.6513 45.0665 14.4376C45.2354 15.7885 45.0665 17.2239 44.5599 18.4059C44.3911 18.8281 44.6444 19.3347 45.0665 19.5036C45.151 19.5036 45.2354 19.588 45.4043 19.588C45.742 19.588 46.0797 19.4191 46.1642 19.0814C46.7552 17.6461 46.924 15.9574 46.7552 14.3532C46.4175 10.9759 44.3911 8.02073 41.7737 6.92311C41.3515 6.75424 40.8449 6.92311 40.676 7.34527C40.5072 7.76743 40.676 8.1896 41.0982 8.35846Z" fill="#ADA9FF"/>
<path d="M26.0686 28.3695C28.4328 28.2006 30.8813 29.6359 32.4011 31.9156C33.161 33.0977 33.6676 34.3642 33.752 35.7151C33.8364 36.1373 34.1742 36.475 34.5963 36.475H34.6808C35.1029 36.3906 35.4407 35.9684 35.4407 35.5462C35.2718 33.942 34.6808 32.4222 33.752 31.0713C31.8945 28.2006 28.7705 26.5119 25.8998 26.7652C25.3932 26.7652 25.0555 27.1874 25.1399 27.694C25.2243 28.2006 25.6465 28.3695 26.0686 28.3695Z" fill="#ADA9FF"/>
<path d="M19.3144 21.5306C20.412 21.5306 21.5096 21.2773 22.5228 20.8552C23.0294 22.1217 23.7049 23.2193 24.5492 24.3169C23.9582 24.4858 23.3671 24.8235 22.8605 25.1612C18.6389 27.9475 17.9635 34.3644 21.3408 39.5148C23.7049 43.061 27.3355 45.0029 30.7128 45.0029C31.3038 45.0029 31.8104 44.9185 32.4014 44.834C32.5703 45.5095 32.7392 46.2694 32.908 47.0293C34.7655 56.9079 37.5518 61.0451 44.222 63.9158C44.3064 64.0003 44.4753 64.0003 44.5597 64.0003C44.8975 64.0003 45.2352 63.8314 45.3196 63.4937C45.4885 63.0715 45.3196 62.5649 44.8975 62.396C38.8183 59.7786 36.3698 56.148 34.5967 46.776C34.4278 45.9317 34.259 45.1718 34.0057 44.4119C34.3434 44.243 34.7655 44.0742 35.1033 43.8209C39.3249 41.0346 40.0004 34.6177 36.6231 29.5517C35.0188 27.1032 32.7392 25.3301 30.1218 24.4858C28.8553 24.0636 27.5888 23.9792 26.3223 24.0636C25.3091 22.8816 24.4648 21.6151 23.9582 20.1797C25.5624 18.9977 26.66 17.2246 27.0822 15.0293C27.6732 12.4119 27.251 9.5412 25.9001 6.92379C23.1138 1.43567 17.2036 -1.18174 12.7286 1.09794C8.2537 3.37762 6.81835 9.71007 9.60462 15.1138C11.7154 19.0821 15.5993 21.5306 19.3144 21.5306ZM27.251 25.5834C28.0109 25.5834 28.8553 25.7523 29.6152 26.0056C31.8104 26.681 33.7524 28.2852 35.1877 30.3961C38.0584 34.7021 37.6363 40.1058 34.1745 42.3855C30.7128 44.6652 25.6468 42.9765 22.7761 38.6705C19.9054 34.3644 20.3276 28.9607 23.7893 26.681C24.8025 25.9211 25.9846 25.5834 27.251 25.5834ZM13.4885 2.36443C14.3329 1.94226 15.2616 1.68897 16.2748 1.68897C19.3144 1.68897 22.6072 3.88421 24.3803 7.43038C25.5624 9.71007 25.9001 12.1586 25.3935 14.4383C24.8869 16.6335 23.7049 18.3222 21.9318 19.1665C18.3012 21.024 13.4041 18.7444 11.04 14.1006C8.7603 9.5412 9.85792 4.22194 13.4885 2.36443Z" fill="#4F46E8"/>
<path d="M30.4601 2.61741L30.2068 3.79947C30.2068 3.8839 30.2068 3.96833 30.2912 3.96833C30.3757 4.05277 30.4601 4.05277 30.5445 3.96833L31.6421 3.37731L32.7398 3.96833H32.8242C32.9086 3.96833 32.9086 3.96833 32.9086 3.96833C32.9931 3.8839 32.9931 3.79947 32.9931 3.79947L32.8242 2.61741L33.753 1.77308C33.8374 1.68865 33.8374 1.60422 33.8374 1.51979C33.8374 1.43535 33.753 1.35092 33.6685 1.35092L32.4865 1.18206L31.9799 0.0844322C31.9799 -4.84386e-07 31.8954 0 31.811 0C31.7266 0 31.6421 0.0844322 31.6421 0.0844322L31.0511 1.18206L29.8691 1.35092C29.7846 1.35092 29.7002 1.43535 29.7002 1.51979C29.7002 1.60422 29.7002 1.68865 29.7846 1.77308L30.4601 2.61741Z" fill="#E8C546"/>
<path d="M2.42779 2.87058L1.83676 3.96821C1.83676 4.05264 1.83676 4.13707 1.83676 4.2215C1.92119 4.30594 2.00563 4.30594 2.00563 4.30594L3.18768 4.05264L4.03201 4.89696C4.03201 4.89696 4.11644 4.9814 4.20088 4.9814H4.28531C4.36974 4.9814 4.45417 4.89696 4.45417 4.81253L4.62304 3.63048L5.72066 3.03945C5.8051 3.03945 5.8051 2.95501 5.8051 2.87058C5.8051 2.78615 5.72066 2.70172 5.72066 2.70172L4.62304 2.19512L4.45417 0.928631C4.45417 0.844198 4.36974 0.759766 4.28531 0.759766C4.20088 0.759766 4.11644 0.759766 4.03201 0.844199L3.18768 1.77296L2.00563 1.60409C1.9212 1.60409 1.83676 1.60409 1.83676 1.68852C1.75233 1.77296 1.75233 1.85739 1.83676 1.94182L2.42779 2.87058Z" fill="#E8C546"/>
<path d="M2.34301 24.7382C2.42744 24.7382 2.51187 24.6538 2.51187 24.5694L2.8496 23.3873L4.03166 22.9651C4.11609 22.9651 4.20052 22.8807 4.20052 22.7963C4.20052 22.7118 4.20052 22.6274 4.11609 22.6274L3.1029 21.952L3.01847 20.6855C3.01847 20.601 2.93403 20.5166 2.93403 20.5166C2.8496 20.5166 2.76517 20.5166 2.68074 20.5166L1.75198 21.2765L0.56992 20.9388C0.485487 20.9388 0.401055 20.9388 0.316623 21.0232C0.23219 21.1076 0.23219 21.1921 0.316623 21.2765L0.738786 22.3741L0.0633245 23.3873C-0.0211082 23.4717 -0.0211082 23.5562 0.0633245 23.6406C0.147757 23.725 0.147757 23.725 0.23219 23.725L1.41425 23.6406L2.17414 24.5694C2.17414 24.7382 2.25857 24.7382 2.34301 24.7382Z" fill="#E8C546"/>
<path d="M11.2088 41.7094C11.2088 41.7938 11.3777 41.7938 11.3777 41.7938L12.6442 41.7094L13.4041 42.6382C13.4041 42.7226 13.4885 42.7226 13.5729 42.7226C13.5729 42.7226 13.5729 42.7226 13.6574 42.7226C13.7418 42.7226 13.8262 42.6382 13.8262 42.5537L14.164 41.3717L15.346 40.9495C15.4305 40.9495 15.5149 40.8651 15.5149 40.7807C15.5149 40.6962 15.5149 40.6118 15.4305 40.6118L14.4173 39.9363L14.3328 38.6698C14.3328 38.5854 14.2484 38.501 14.2484 38.501C14.164 38.501 14.0795 38.501 13.9951 38.501L12.8975 39.3453L11.7154 39.0076C11.631 39.0076 11.5466 39.0076 11.4621 39.092C11.3777 39.1764 11.3777 39.2609 11.4621 39.3453L11.8843 40.4429L11.2088 41.4561C11.1244 41.5405 11.1244 41.625 11.2088 41.7094Z" fill="#E8C546"/>
<path d="M5.04528 52.0107C5.04528 51.9262 4.96085 51.8418 4.96085 51.8418C4.87642 51.8418 4.79198 51.8418 4.70755 51.8418L3.69436 52.6861L2.5123 52.3484C2.42787 52.3484 2.34344 52.3484 2.259 52.4328C2.17457 52.5173 2.17457 52.6017 2.259 52.6861L2.68117 53.7838L2.00571 54.7969C1.92127 54.8814 1.92127 54.9658 2.00571 55.0502C2.09014 55.1347 2.09014 55.1347 2.17457 55.1347L3.35663 55.0502L4.11652 55.979C4.11652 56.0634 4.20096 56.0634 4.28539 56.0634C4.28539 56.0634 4.28539 56.0634 4.36982 56.0634C4.45425 56.0634 4.53869 55.979 4.53869 55.8946L4.87642 54.7125L6.05847 54.2903C6.14291 54.2903 6.22734 54.2059 6.22734 54.1215C6.22734 54.037 6.22734 53.9526 6.14291 53.9526L5.12971 53.2771L5.04528 52.0107Z" fill="#E8C546"/>
<path d="M58.575 3.79971L59.8415 3.71528L60.6014 4.64404C60.6014 4.72847 60.6858 4.72847 60.7703 4.72847C60.7703 4.72847 60.7703 4.72847 60.8547 4.72847C60.9391 4.72847 61.0236 4.64403 61.0236 4.5596L61.3613 3.37755L62.5434 2.95538C62.6278 2.95538 62.7122 2.87095 62.7122 2.78652C62.7122 2.70208 62.7122 2.61765 62.6278 2.61765L61.6146 1.94219L61.5302 0.675701C61.5302 0.591268 61.4457 0.506836 61.4457 0.506836C61.3613 0.506836 61.2769 0.506836 61.1924 0.506836L60.2637 1.26673L59.0816 0.928999C58.9972 0.928999 58.9128 0.928999 58.8283 1.01343C58.7439 1.09786 58.7439 1.1823 58.8283 1.26673L59.2505 2.36435L58.575 3.37755C58.4906 3.46198 58.4906 3.54641 58.575 3.63084C58.4062 3.71528 58.4906 3.79971 58.575 3.79971Z" fill="#E8C546"/>
<path d="M56.3809 24.4011L56.1276 25.6676C56.1276 25.7521 56.1276 25.8365 56.212 25.8365C56.2965 25.9209 56.3809 25.9209 56.4653 25.8365L57.563 25.2455L58.6606 25.8365H58.745C58.8295 25.8365 58.8294 25.8365 58.8294 25.8365C58.9139 25.7521 58.9139 25.7521 58.9139 25.6676L58.745 24.4856L59.6738 23.6412C59.7582 23.5568 59.7582 23.4724 59.7582 23.388C59.7582 23.3035 59.6738 23.2191 59.5893 23.2191L58.4073 23.0502L57.9007 21.9526C57.9007 21.8682 57.8163 21.8682 57.7318 21.8682C57.6474 21.8682 57.563 21.8682 57.563 21.9526L56.8031 23.0502L55.621 23.2191C55.5366 23.2191 55.4521 23.3035 55.4521 23.388C55.4521 23.4724 55.4521 23.5568 55.5366 23.6412L56.3809 24.4011Z" fill="#E8C546"/>
<path d="M67.6938 38.1633C67.6938 38.0789 67.6094 37.9945 67.525 37.9945L66.3429 37.8256L65.8363 36.728C65.8363 36.6436 65.7519 36.6436 65.6675 36.6436C65.583 36.6436 65.4986 36.728 65.4986 36.728L64.9076 37.8256L63.7255 37.9945C63.6411 37.9945 63.5566 38.0789 63.5566 38.1633C63.5566 38.2478 63.5566 38.3322 63.6411 38.4166L64.4854 39.261L64.2321 40.443C64.2321 40.5275 64.2321 40.6119 64.3165 40.6119C64.401 40.6963 64.4854 40.6963 64.5698 40.6119L65.6675 40.0209L66.7651 40.6119H66.8495C66.9339 40.6119 66.9339 40.6119 66.9339 40.6119C67.0184 40.5275 67.0184 40.5275 67.0184 40.443L66.8495 39.261L67.7783 38.4166C67.6938 38.3322 67.7783 38.2478 67.6938 38.1633Z" fill="#E8C546"/>
</svg>
