<svg width="1440" height="1324" fill="none" xmlns="http://www.w3.org/2000/svg">
  <path d="M2100.01 1202.18c2.08.76 3.74 1.39 4.99 1.86V118.418c-.19-.074-.41-.157-.65-.248-1.27-.487-3.19-1.207-5.72-2.137-5.06-1.858-12.61-4.553-22.52-7.89-19.83-6.676-49.12-15.923-86.94-26.199-75.65-20.553-185.43-45.223-321.93-61.67-273-32.894-652.83-32.895-1080.151 98.686C159.126 250.74-221.289 250.741-494.72 217.795c-136.716-16.473-246.691-41.184-322.5-61.781-37.905-10.299-67.269-19.569-87.164-26.268-9.948-3.349-17.528-6.055-22.626-7.926a504.026 504.026 0 01-4.99-1.859V1205.58c.194.08.41.16.647.25 1.277.49 3.189 1.21 5.722 2.14 5.064 1.86 12.611 4.55 22.523 7.89 19.825 6.67 49.113 15.92 86.937 26.2 75.647 20.55 185.431 45.22 321.93 61.67 272.999 32.89 652.834 32.89 1080.152-98.69 427.959-131.78 808.379-131.78 1081.809-98.83 136.72 16.47 246.69 41.18 322.5 61.78 37.9 10.29 67.27 19.57 87.16 26.26 9.95 3.35 17.53 6.06 22.63 7.93z" fill="#fff" stroke="#4DBAC6" stroke-width="4"/>
</svg>