<svg id="Layer_1" data-name="Layer 1" xmlns="http://www.w3.org/2000/svg" viewBox="0 0 184.33 50.38">
  <g>
    <path d="M273.12,213.36H247.33c.95,4.24,4.56,6.84,9.76,6.84a11.61,11.61,0,0,0,8.56-3.29l5.25,5.7c-3.16,3.61-7.92,5.51-14.06,5.51-11.79,0-19.46-7.41-19.46-17.55S245.18,193,255.57,193c10,0,17.74,6.71,17.74,17.68C273.31,211.46,273.19,212.53,273.12,213.36Zm-25.92-5.77H264a8.52,8.52,0,0,0-16.8,0Z" transform="translate(-237.38 -177.74)" style="fill: #464be3"/>
    <path d="M338.77,208.1v19.52h-9.89v-18c0-5.51-2.47-8.05-6.46-8.05-4.44,0-7.54,2.85-7.54,8.94v17.11H305v-18c0-5.51-2.34-8.05-6.46-8.05-4.37,0-7.48,2.85-7.48,8.94v17.11h-9.88v-34.1h9.44v3.93A13.82,13.82,0,0,1,301.32,193c4.75,0,8.81,1.83,11.21,5.57a15.37,15.37,0,0,1,12.3-5.57C332.94,193,338.77,197.7,338.77,208.1Z" transform="translate(-237.38 -177.74)" style="fill: #464be3"/>
    <path d="M347.7,183.26c0-3.11,2.47-5.52,6.15-5.52S360,180,360,183.07c0,3.29-2.47,5.7-6.14,5.7S347.7,186.36,347.7,183.26Zm1.2,10.26h9.89v34.1H348.9Z" transform="translate(-237.38 -177.74)" style="fill: #464be3"/>
    <path d="M369.24,180.59h9.89v47h-9.89Z" transform="translate(-237.38 -177.74)" style="fill: #464be3"/>
    <path d="M421.52,213.36H395.73c.95,4.24,4.56,6.84,9.76,6.84a11.57,11.57,0,0,0,8.55-3.29l5.26,5.7c-3.17,3.61-7.92,5.51-14.07,5.51-11.78,0-19.45-7.41-19.45-17.55S393.57,193,404,193c10,0,17.74,6.71,17.74,17.68C421.71,211.46,421.58,212.53,421.52,213.36Zm-25.92-5.77h16.79a8.51,8.51,0,0,0-16.79,0Z" transform="translate(-237.38 -177.74)" style="fill: #464be3"/>
  </g>
</svg>
