<?xml version="1.0" encoding="utf-8"?>
<!-- Generator: Adobe Illustrator 24.2.1, SVG Export Plug-In . SVG Version: 6.00 Build 0)  -->
<svg version="1.1" id="Capa_1" xmlns="http://www.w3.org/2000/svg" xmlns:xlink="http://www.w3.org/1999/xlink" x="0px" y="0px"
	 width="470px" height="470px" viewBox="0 0 470 470" style="enable-background:new 0 0 470 470;" xml:space="preserve">
<style type="text/css">
	.st0{fill:#FFFFFF;}
</style>
<g>
	<path class="st0" d="M420,400.3h-2.5v-32.5c0-4.1-3.4-7.5-7.5-7.5H297.5v-49c3.2,1.6,6.5,3.1,10,4.3c0.8,0.3,1.7,0.4,2.5,0.4
		c3.1,0,6-1.9,7.1-5c1.4-3.9-0.7-8.2-4.6-9.6c-26.9-9.5-45-35.1-45-63.7v-65.3c0-4.1,3.4-7.5,7.5-7.5s7.5,3.4,7.5,7.5v65.3
		c0,4.1,3.4,7.5,7.5,7.5c20.7,0,37.5,16.8,37.5,37.5c0,4.1,3.4,7.5,7.5,7.5s7.5-3.4,7.5-7.5c0-26.4-19.6-48.3-45-52V112.5
		c0-4.1,3.4-7.5,7.5-7.5s7.5,3.4,7.5,7.5v86c0,4.1,3.4,7.5,7.5,7.5s7.5-3.4,7.5-7.5v-106c0-4.1,3.4-7.5,7.5-7.5s7.5,3.4,7.5,7.5v106
		c0,4.1,3.4,7.5,7.5,7.5s7.5-3.4,7.5-7.5v-86c0-4.1,3.4-7.5,7.5-7.5s7.5,3.4,7.5,7.5v86c0,4.1,3.4,7.5,7.5,7.5s7.5-3.4,7.5-7.5v-66
		c0-4.1,3.4-7.5,7.5-7.5s7.5,3.4,7.5,7.5v105.3c0,17.1-6.4,33.4-18,45.9c-1.3,1.4-2,3.2-2,5.1v49c0,4.1,3.4,7.5,7.5,7.5
		s7.5-3.4,7.5-7.5v-46.1c12.9-15,20-34,20-53.8V132.5c0-12.4-10.1-22.5-22.5-22.5c-2.6,0-5.2,0.5-7.5,1.3C386.8,99.4,377,90,365,90
		c-2.6,0-5.2,0.5-7.5,1.3C356.8,79.4,347,70,335,70s-21.8,9.4-22.5,21.3c-2.4-0.8-4.9-1.3-7.5-1.3c-12.4,0-22.5,10.1-22.5,22.5v38.8
		c-2.3-0.8-4.9-1.3-7.5-1.3c-12.4,0-22.5,10.1-22.5,22.5v65.3c0,25.1,11.4,48.3,30,63.6v58.8H270c-4.1,0-7.5,3.4-7.5,7.5v32.5H260
		c-4.1,0-7.5,3.4-7.5,7.5v54.7c0,4.1,3.4,7.5,7.5,7.5s7.5-3.4,7.5-7.5v-47.2h145v47.2c0,4.1,3.4,7.5,7.5,7.5s7.5-3.4,7.5-7.5v-54.7
		C427.5,403.6,424.1,400.3,420,400.3z M277.5,375.3h125v25h-125V375.3z"/>
	<path class="st0" d="M210,330.3h-2.5v-32.5c0-4.1-3.4-7.5-7.5-7.5H87.5v-49c3.2,1.6,6.5,3.1,10,4.3c0.8,0.3,1.7,0.4,2.5,0.4
		c3.1,0,6-1.9,7.1-5c1.4-3.9-0.7-8.2-4.6-9.6c-26.9-9.5-45-35.1-45-63.7v-65.3c0-4.1,3.4-7.5,7.5-7.5s7.5,3.4,7.5,7.5v65.3
		c0,4.1,3.4,7.5,7.5,7.5c20.7,0,37.5,16.8,37.5,37.5c0,4.1,3.4,7.5,7.5,7.5c4.1,0,7.5-3.4,7.5-7.5c0-26.4-19.6-48.3-45-52V42.5
		c0-4.1,3.4-7.5,7.5-7.5s7.5,3.4,7.5,7.5v86c0,4.1,3.4,7.5,7.5,7.5s7.5-3.4,7.5-7.5v-106c0-4.1,3.4-7.5,7.5-7.5s7.5,3.4,7.5,7.5v106
		c0,4.1,3.4,7.5,7.5,7.5s7.5-3.4,7.5-7.5v-86c0-4.1,3.4-7.5,7.5-7.5s7.5,3.4,7.5,7.5v86c0,4.1,3.4,7.5,7.5,7.5s7.5-3.4,7.5-7.5v-66
		c0-4.1,3.4-7.5,7.5-7.5s7.5,3.4,7.5,7.5v105.3c0,17.1-6.4,33.4-18,45.9c-1.3,1.4-2,3.2-2,5.1v49c0,4.1,3.4,7.5,7.5,7.5
		s7.5-3.4,7.5-7.5v-46.1c12.9-15,20-34,20-53.8V62.5c0-12.4-10.1-22.5-22.5-22.5c-2.6,0-5.2,0.5-7.5,1.3C176.8,29.4,167,20,155,20
		c-2.6,0-5.2,0.5-7.5,1.3C146.8,9.4,137,0,125,0s-21.8,9.4-22.5,21.3c-2.4-0.8-4.9-1.3-7.5-1.3c-12.4,0-22.5,10.1-22.5,22.5v38.8
		C70.2,80.5,67.6,80,65,80c-12.4,0-22.5,10.1-22.5,22.5v65.3c0,25.1,11.4,48.3,30,63.6v58.8H60c-4.1,0-7.5,3.4-7.5,7.5v32.5H50
		c-4.1,0-7.5,3.4-7.5,7.5v124.7c0,4.1,3.4,7.5,7.5,7.5s7.5-3.4,7.5-7.5V345.3h145v117.2c0,4.1,3.4,7.5,7.5,7.5s7.5-3.4,7.5-7.5
		V337.8C217.5,333.6,214.1,330.3,210,330.3z M67.5,305.3h125v25h-125V305.3z"/>
</g>
</svg>
