<svg width="32" height="32" viewBox="0 0 32 32" fill="none" xmlns="http://www.w3.org/2000/svg">
<path d="M15.967 16.2881H16.0338C16.7197 16.2881 17.2779 16.8436 17.2779 17.5264C17.2779 18.2092 16.7197 18.7646 16.0338 18.7646C15.3479 18.7646 14.7896 18.2092 14.7896 17.5264C14.7896 17.3055 14.6105 17.1264 14.3896 17.1264C14.1688 17.1264 13.9896 17.3055 13.9896 17.5264C13.9896 18.4895 14.665 19.2942 15.567 19.506V19.8773C15.567 20.0982 15.7461 20.2773 15.967 20.2773C16.1879 20.2773 16.367 20.0982 16.367 19.8773V19.5311C17.3353 19.3712 18.0779 18.5364 18.0779 17.5264C18.0779 16.4025 17.1609 15.4881 16.0338 15.4881H15.967C15.2811 15.4881 14.7229 14.9326 14.7229 14.25C14.7229 13.5672 15.2811 13.0117 15.967 13.0117C16.6529 13.0117 17.2111 13.5672 17.2111 14.25C17.2111 14.4709 17.3902 14.65 17.6111 14.65C17.832 14.65 18.0111 14.4709 18.0111 14.25C18.0111 13.2627 17.3032 12.4382 16.367 12.2521V11.899C16.367 11.6781 16.1879 11.499 15.967 11.499C15.7461 11.499 15.567 11.6781 15.567 11.899V12.2521C14.6308 12.4382 13.9229 13.2627 13.9229 14.25C13.9229 15.3738 14.8398 16.2881 15.967 16.2881Z" fill="#35656D"/>
<path d="M16.0004 22.3729C19.5143 22.3729 22.3729 19.5143 22.3729 16.0004C22.3729 12.4865 19.5143 9.62793 16.0004 9.62793C12.4865 9.62793 9.62793 12.4865 9.62793 16.0004C9.62793 19.5143 12.4865 22.3729 16.0004 22.3729ZM16.0004 10.4279C19.073 10.4279 21.5729 12.9277 21.5729 16.0004C21.5729 19.073 19.073 21.5729 16.0004 21.5729C12.9277 21.5729 10.4279 19.073 10.4279 16.0004C10.4279 12.9277 12.9277 10.4279 16.0004 10.4279Z" fill="#35656D"/>
<path d="M0.4 25.8794H7.81162C7.60757 26.0398 7.39387 26.1887 7.16367 26.3145L5.77695 27.0729C5.64863 27.1431 5.56895 27.2776 5.56895 27.4239C5.56895 27.5702 5.64863 27.7048 5.77695 27.7749L7.16387 28.5333C7.95527 28.9661 8.60273 29.6134 9.03594 30.4054L9.79434 31.7921C9.86445 31.9204 9.99902 32.0001 10.1453 32.0001C10.2916 32.0001 10.4262 31.9202 10.4963 31.7919L11.2545 30.4054C11.6877 29.6134 12.3352 28.9661 13.1268 28.5333L14.5135 27.7749C14.6418 27.7048 14.7215 27.5702 14.7215 27.4239C14.7215 27.2776 14.6418 27.1431 14.5135 27.0729L13.1268 26.3145C12.8966 26.1887 12.6829 26.0398 12.4788 25.8794H31.6C31.8209 25.8794 32 25.7003 32 25.4794V6.5208C32 6.2999 31.8209 6.1208 31.6 6.1208H24.3062C24.5102 5.9604 24.7239 5.81152 24.9541 5.68564L26.3406 4.92725C26.4689 4.85713 26.5486 4.72256 26.5486 4.57627C26.5486 4.42998 26.4689 4.29541 26.3406 4.22529L24.9541 3.46689C24.1623 3.03389 23.5148 2.38662 23.0818 1.59482L22.3234 0.208105C22.1832 -0.0485352 21.7617 -0.0485352 21.6215 0.208105L20.8631 1.59482C20.4301 2.38662 19.7826 3.03389 18.9908 3.46689L17.6043 4.22529C17.476 4.29541 17.3963 4.42998 17.3963 4.57627C17.3963 4.72256 17.476 4.85713 17.6043 4.92725L18.9908 5.68564C19.221 5.81152 19.4347 5.9604 19.6388 6.1208H0.4C0.179102 6.1208 0 6.2999 0 6.5208V25.4794C0 25.7003 0.179102 25.8794 0.4 25.8794ZM20.8631 7.55791L21.6215 8.94443C21.6916 9.07275 21.8262 9.15244 21.9725 9.15244C22.1187 9.15244 22.2533 9.07275 22.3234 8.94443L23.0818 7.55791C23.2054 7.33196 23.3507 7.12161 23.5076 6.9208H26.5812C26.7797 9.34145 28.7563 11.2607 31.2 11.3729V20.6273C28.7563 20.7395 26.7797 22.6587 26.5812 25.0794H11.6802C11.5234 24.8786 11.3781 24.6682 11.2545 24.4423L10.4963 23.0558C10.4262 22.9276 10.2916 22.8478 10.1453 22.8478C9.99902 22.8478 9.86445 22.9274 9.79434 23.0558L9.03594 24.4423C8.91238 24.6682 8.76704 24.8786 8.61018 25.0794H5.32056C5.12471 22.6913 3.19829 20.7908 0.8 20.6322V11.3679C3.19829 11.2093 5.12471 9.30891 5.32056 6.9208H20.4373C20.5942 7.12161 20.7395 7.33196 20.8631 7.55791ZM0.8 21.4323C2.75752 21.5873 4.32935 23.1321 4.52056 25.0794H0.8V21.4323ZM13.4879 27.4239L12.743 27.8313C11.8168 28.3376 11.0594 29.095 10.5525 30.0216L10.1453 30.7663L9.73789 30.0214C9.23106 29.095 8.47363 28.3376 7.54766 27.8313L6.80254 27.4239L7.54766 27.0165C8.47383 26.5099 9.23125 25.7524 9.73789 24.8263L10.1453 24.0813L10.5525 24.8263C11.0592 25.7524 11.8166 26.5099 12.7428 27.0165L13.4879 27.4239ZM27.3812 25.0794C27.5756 23.0997 29.1973 21.5374 31.2 21.4273V25.0794H27.3812ZM31.2 10.5729C29.1973 10.4628 27.5756 8.90046 27.3812 6.9208H31.2V10.5729ZM18.6299 4.57627L19.3748 4.16885C20.301 3.66221 21.0584 2.90498 21.565 1.97881L21.9725 1.23369L22.3799 1.97881C22.8865 2.90498 23.6439 3.66221 24.5701 4.16885L25.315 4.57627L24.5701 4.98369C23.6439 5.49033 22.8865 6.24775 22.3799 7.17393L21.9725 7.91885L21.565 7.17393C21.0584 6.24775 20.301 5.49033 19.3748 4.98369L18.6299 4.57627ZM4.52056 6.9208C4.32935 8.86807 2.75752 10.4129 0.8 10.5679V6.9208H4.52056Z" fill="#35656D"/>
<path d="M11.5367 3.81758C11.7576 3.81758 11.9367 3.63848 11.9367 3.41758V2.30879H13.0455C13.2664 2.30879 13.4455 2.12969 13.4455 1.90879C13.4455 1.68789 13.2664 1.50879 13.0455 1.50879H11.9367V0.4C11.9367 0.179102 11.7576 0 11.5367 0C11.3158 0 11.1367 0.179102 11.1367 0.4V1.50879H10.0279C9.80703 1.50879 9.62793 1.68789 9.62793 1.90879C9.62793 2.12969 9.80703 2.30879 10.0279 2.30879H11.1367V3.41758C11.1367 3.63848 11.3158 3.81758 11.5367 3.81758Z" fill="#35656D"/>
<path d="M4.4625 5.32637C4.6834 5.32637 4.8625 5.14727 4.8625 4.92637V3.81758H5.97129C6.19219 3.81758 6.37129 3.63848 6.37129 3.41758C6.37129 3.19668 6.19219 3.01758 5.97129 3.01758H4.8625V1.90879C4.8625 1.68789 4.6834 1.50879 4.4625 1.50879C4.2416 1.50879 4.0625 1.68789 4.0625 1.90879V3.01758H2.95371C2.73281 3.01758 2.55371 3.19668 2.55371 3.41758C2.55371 3.63848 2.73281 3.81758 2.95371 3.81758H4.0625V4.92637C4.0625 5.14727 4.2416 5.32637 4.4625 5.32637Z" fill="#35656D"/>
<path d="M20.7975 30.841C21.0184 30.841 21.1975 30.6619 21.1975 30.441V29.3322H22.3063C22.5272 29.3322 22.7063 29.1531 22.7063 28.9322C22.7063 28.7113 22.5272 28.5322 22.3063 28.5322H21.1975V27.4234C21.1975 27.2025 21.0184 27.0234 20.7975 27.0234C20.5766 27.0234 20.3975 27.2025 20.3975 27.4234V28.5322H19.2887C19.0678 28.5322 18.8887 28.7113 18.8887 28.9322C18.8887 29.1531 19.0678 29.3322 19.2887 29.3322H20.3975V30.441C20.3975 30.6619 20.5766 30.841 20.7975 30.841Z" fill="#35656D"/>
</svg>
