<svg xmlns="http://www.w3.org/2000/svg" viewBox="0 0 120 120"><defs><style>.cls-1{fill:#4f46e8;}.cls-2{fill:#fff;}</style></defs><g id="Layer_2" data-name="Layer 2"><g id="Layer_1-2" data-name="Layer 1"><rect class="cls-1" width="120" height="120" rx="20"/><path class="cls-2" d="M61.28,88.16A26.56,26.56,0,0,1,47.41,84.7a23.09,23.09,0,0,1-8.95-9.77,32.82,32.82,0,0,1-3.14-14.79,33.15,33.15,0,0,1,3.14-14.77A23.49,23.49,0,0,1,60.53,31.81a26.93,26.93,0,0,1,9,1.52,21.72,21.72,0,0,1,7.78,4.8,22.43,22.43,0,0,1,5.43,8.47,35.33,35.33,0,0,1,2,12.62V63H41.32V55h33a15.76,15.76,0,0,0-1.71-7.44,12.89,12.89,0,0,0-4.77-5.13,13.56,13.56,0,0,0-7.2-1.88,13.89,13.89,0,0,0-7.79,2.18,14.77,14.77,0,0,0-5.11,5.68A16.35,16.35,0,0,0,45.9,56v6.22a20.42,20.42,0,0,0,1.94,9.3,13.57,13.57,0,0,0,5.41,5.84,16,16,0,0,0,8.14,2,16.57,16.57,0,0,0,5.5-.87,11.7,11.7,0,0,0,4.3-2.61A11.48,11.48,0,0,0,74,71.61L84,73.43a18.24,18.24,0,0,1-4.32,7.75,20.78,20.78,0,0,1-7.78,5.15A28.92,28.92,0,0,1,61.28,88.16Z"/></g></g></svg>